<svg width="1415" height="548" viewBox="0 0 1415 548" fill="none" xmlns="http://www.w3.org/2000/svg">
<rect x="250" y="198" width="50" height="50" fill="#4148E3" fill-opacity="0.47"/>
<rect x="300" y="248" width="50" height="50" fill="#6B6FE4" fill-opacity="0.47"/>
<rect x="200" y="348" width="50" height="50" fill="#4148E3" fill-opacity="0.47"/>
<rect x="100" y="448" width="50" height="50" fill="#2F34AC" fill-opacity="0.47"/>
<rect x="100" y="348" width="50" height="50" fill="#2F34AC" fill-opacity="0.47"/>
<rect x="50" y="298" width="50" height="50" fill="#2F34AC" fill-opacity="0.47"/>
<rect x="100" y="248" width="50" height="50" fill="#4148E3" fill-opacity="0.47"/>
<rect x="100" y="148" width="50" height="50" fill="#4148E3" fill-opacity="0.47"/>
<rect x="150" y="100" width="50" height="50" fill="#4148E3" fill-opacity="0.47"/>
<rect x="200" y="50" width="50" height="50" fill="#4148E3" fill-opacity="0.47"/>
<rect x="50" y="198" width="50" height="50" fill="#2F34AC" fill-opacity="0.47"/>
<rect y="248" width="50" height="50" fill="#2F34AC" fill-opacity="0.47"/>
<rect x="350" y="298" width="50" height="50" fill="#6B6FE4" fill-opacity="0.47"/>
<rect x="300" y="348" width="50" height="50" fill="#6B6FE4" fill-opacity="0.47"/>
<rect x="400" y="348" width="50" height="50" fill="#6B6FE4" fill-opacity="0.47"/>
<rect x="450" y="298" width="50" height="50" fill="#6B6FE4" fill-opacity="0.47"/>
<rect x="250" y="498" width="50" height="50" fill="#4148E3" fill-opacity="0.47"/>
<rect x="350" y="398" width="50" height="50" fill="#6B6FE4" fill-opacity="0.47"/>
<rect x="250" y="298" width="50" height="50" fill="#4148E3" fill-opacity="0.47"/>
<rect x="150" y="298" width="50" height="50" fill="#4148E3" fill-opacity="0.47"/>
<rect x="150" y="198" width="50" height="50" fill="#4148E3" fill-opacity="0.47"/>
<rect x="200" y="148" width="50" height="50" fill="#4148E3" fill-opacity="0.47"/>
<rect x="150" y="398" width="50" height="50" fill="#2F34AC" fill-opacity="0.47"/>
<rect x="200" y="248" width="50" height="50" fill="#4148E3" fill-opacity="0.47"/>
<rect x="303" y="150" width="50" height="50" fill="#6B6FE4" fill-opacity="0.47"/>
<rect x="50" y="398" width="50" height="50" fill="#2F34AC" fill-opacity="0.47"/>
<rect x="200" y="448" width="50" height="50" fill="#4148E3" fill-opacity="0.47"/>
<path d="M150 498H200V548H150V498Z" fill="#2F34AC" fill-opacity="0.47"/>
<rect x="250" y="398" width="50" height="50" fill="#4148E3" fill-opacity="0.47"/>
<rect x="1165" width="50" height="50" fill="#1B72B1" fill-opacity="0.47"/>
<rect x="1115" y="50" width="50" height="50" fill="#1B72B1" fill-opacity="0.47"/>
<rect x="1215" y="50" width="50" height="50" fill="#1B72B1" fill-opacity="0.47"/>
<rect x="1215" y="148" width="50" height="50" fill="#419FE3" fill-opacity="0.47"/>
<rect x="1165" y="100" width="50" height="50" fill="#1B72B1" fill-opacity="0.47"/>
<rect x="1265" y="100" width="50" height="50" fill="#1B72B1" fill-opacity="0.47"/>
<rect x="1265" y="198" width="50" height="50" fill="#419FE3" fill-opacity="0.47"/>
<rect x="1315" y="148" width="50" height="50" fill="#1B72B1" fill-opacity="0.47"/>
<rect x="1315" y="50" width="50" height="50" fill="#1B72B1" fill-opacity="0.47"/>
<rect x="1365" width="50" height="50" fill="#1B72B1" fill-opacity="0.47"/>
<rect x="1265" width="50" height="50" fill="#1B72B1" fill-opacity="0.47"/>
<rect x="1215" y="250" width="50" height="50" fill="#419FE3" fill-opacity="0.47"/>
<rect x="1165" y="399" width="50" height="50" fill="#419FE3" fill-opacity="0.47"/>
<rect x="1265" y="399" width="50" height="50" fill="#419FE3" fill-opacity="0.47"/>
<rect x="1365" y="400" width="50" height="50" fill="#419FE3" fill-opacity="0.47"/>
<rect x="1265" y="300" width="50" height="50" fill="#419FE3" fill-opacity="0.47"/>
<rect x="1115" y="150" width="50" height="50" fill="#419FE3" fill-opacity="0.47"/>
<rect x="1165" y="200" width="50" height="50" fill="#419FE3" fill-opacity="0.47"/>
<rect x="1115" y="349" width="50" height="50" fill="#419FE3" fill-opacity="0.47"/>
<rect x="1215" y="349" width="50" height="50" fill="#419FE3" fill-opacity="0.47"/>
<rect x="1315" y="350" width="50" height="50" fill="#419FE3" fill-opacity="0.47"/>
<rect x="865" width="50" height="50" fill="#419FE3" fill-opacity="0.47"/>
<rect x="1065" width="50" height="50" fill="#1B72B1" fill-opacity="0.47"/>
<rect x="1065" y="100" width="50" height="50" fill="#419FE3" fill-opacity="0.47"/>
<rect x="1015" y="50" width="50" height="50" fill="#419FE3" fill-opacity="0.47"/>
<rect x="1015" y="150" width="50" height="50" fill="#419FE3" fill-opacity="0.47"/>
<rect x="1065" y="200" width="50" height="50" fill="#419FE3" fill-opacity="0.47"/>
<rect x="1115" y="250" width="50" height="50" fill="#419FE3" fill-opacity="0.47"/>
<rect x="1165" y="300" width="50" height="50" fill="#419FE3" fill-opacity="0.47"/>
<rect x="1115" y="449" width="50" height="50" fill="#419FE3" fill-opacity="0.47"/>
<rect x="1215" y="449" width="50" height="50" fill="#419FE3" fill-opacity="0.47"/>
<rect x="1165" y="498" width="50" height="50" fill="#419FE3" fill-opacity="0.47"/>
<rect x="1315" y="449" width="50" height="50" fill="#419FE3" fill-opacity="0.47"/>
<rect x="1065" y="299" width="50" height="50" fill="#84C1ED" fill-opacity="0.47"/>
<rect x="1065" y="399" width="50" height="50" fill="#84C1ED" fill-opacity="0.47"/>
<rect x="1015" y="447" width="50" height="50" fill="#84C1ED" fill-opacity="0.47"/>
<rect x="965" y="495" width="50" height="50" fill="#84C1ED" fill-opacity="0.47"/>
<rect x="1015" y="349" width="50" height="50" fill="#84C1ED" fill-opacity="0.47"/>
<rect x="765" width="50" height="50" fill="#419FE3" fill-opacity="0.47"/>
<rect x="965" width="50" height="50" fill="#419FE3" fill-opacity="0.47"/>
<rect x="965" y="100" width="50" height="50" fill="#419FE3" fill-opacity="0.47"/>
<rect x="915" y="50" width="50" height="50" fill="#419FE3" fill-opacity="0.47"/>
<rect x="865" y="100" width="50" height="50" fill="#84C1ED" fill-opacity="0.47"/>
<rect x="815" y="50" width="50" height="50" fill="#419FE3" fill-opacity="0.47"/>
<rect x="765" y="100" width="50" height="50" fill="#84C1ED" fill-opacity="0.47"/>
<rect x="915" y="150" width="50" height="50" fill="#84C1ED" fill-opacity="0.47"/>
<rect x="965" y="200" width="50" height="50" fill="#84C1ED" fill-opacity="0.47"/>
<rect x="665" width="50" height="50" fill="#84C1ED" fill-opacity="0.47"/>
<rect x="1015" y="248" width="50" height="50" fill="#84C1ED" fill-opacity="0.47"/>
<rect x="915" y="248" width="50" height="50" fill="#84C1ED" fill-opacity="0.47"/>
<rect x="865" y="199" width="50" height="50" fill="#84C1ED" fill-opacity="0.47"/>
<rect x="815" y="248" width="50" height="50" fill="#84C1ED" fill-opacity="0.47"/>
</svg>
